<?xml version="1.0" encoding="UTF-8" standalone="no"?>
<!-- Created with Inkscape (http://www.inkscape.org/) -->

<svg
   width="341.07916mm"
   height="84.232513mm"
   viewBox="0 0 341.07916 84.232513"
   version="1.1"
   id="svg1"
   xml:space="preserve"
   xmlns:xlink="http://www.w3.org/1999/xlink"
   xmlns="http://www.w3.org/2000/svg"
   xmlns:svg="http://www.w3.org/2000/svg"><defs
     id="defs1"><linearGradient
       id="linearGradient74"><stop
         style="stop-color:#dcb965;stop-opacity:0.78823531;"
         offset="0"
         id="stop73" /><stop
         style="stop-color:#d7a647;stop-opacity:0;"
         offset="1"
         id="stop74" /></linearGradient><linearGradient
       id="linearGradient72"><stop
         style="stop-color:#dcb965;stop-opacity:0.78823531;"
         offset="0"
         id="stop71" /><stop
         style="stop-color:#d7a647;stop-opacity:0;"
         offset="1"
         id="stop72" /></linearGradient><linearGradient
       id="linearGradient70"><stop
         style="stop-color:#dcb965;stop-opacity:0.78823531;"
         offset="0"
         id="stop69" /><stop
         style="stop-color:#d7a647;stop-opacity:0;"
         offset="1"
         id="stop70" /></linearGradient><linearGradient
       id="linearGradient68"><stop
         style="stop-color:#dcb965;stop-opacity:0.78823531;"
         offset="0"
         id="stop67" /><stop
         style="stop-color:#d7a647;stop-opacity:0;"
         offset="1"
         id="stop68" /></linearGradient><linearGradient
       id="linearGradient66"><stop
         style="stop-color:#dcb965;stop-opacity:0.78823531;"
         offset="0"
         id="stop65" /><stop
         style="stop-color:#d7a647;stop-opacity:0;"
         offset="1"
         id="stop66" /></linearGradient><linearGradient
       id="linearGradient64"><stop
         style="stop-color:#dcb965;stop-opacity:0.78823531;"
         offset="0"
         id="stop63" /><stop
         style="stop-color:#d7a647;stop-opacity:0;"
         offset="1"
         id="stop64" /></linearGradient><linearGradient
       id="linearGradient62"><stop
         style="stop-color:#dcb965;stop-opacity:0.78823531;"
         offset="0"
         id="stop61" /><stop
         style="stop-color:#d7a647;stop-opacity:0;"
         offset="1"
         id="stop62" /></linearGradient><linearGradient
       id="linearGradient60"><stop
         style="stop-color:#dcb965;stop-opacity:0.78823531;"
         offset="0"
         id="stop59" /><stop
         style="stop-color:#d7a647;stop-opacity:0;"
         offset="1"
         id="stop60" /></linearGradient><linearGradient
       id="linearGradient58"><stop
         style="stop-color:#dcb965;stop-opacity:0.78823531;"
         offset="0"
         id="stop57" /><stop
         style="stop-color:#d7a647;stop-opacity:0;"
         offset="1"
         id="stop58" /></linearGradient><linearGradient
       id="linearGradient56"><stop
         style="stop-color:#dcb965;stop-opacity:0.78823531;"
         offset="0"
         id="stop55" /><stop
         style="stop-color:#d7a647;stop-opacity:0;"
         offset="1"
         id="stop56" /></linearGradient><linearGradient
       id="linearGradient51"><stop
         style="stop-color:#dcb965;stop-opacity:0.78823531;"
         offset="0"
         id="stop50" /><stop
         style="stop-color:#d7a647;stop-opacity:0;"
         offset="1"
         id="stop51" /></linearGradient><linearGradient
       id="linearGradient49"><stop
         style="stop-color:#dcb965;stop-opacity:0.78823531;"
         offset="0"
         id="stop48" /><stop
         style="stop-color:#d7a647;stop-opacity:0;"
         offset="1"
         id="stop49" /></linearGradient><linearGradient
       id="linearGradient38"><stop
         style="stop-color:#dcb965;stop-opacity:0.78988326;"
         offset="0"
         id="stop37" /><stop
         style="stop-color:#d0a647;stop-opacity:0;"
         offset="1"
         id="stop38" /></linearGradient><linearGradient
       id="linearGradient23"><stop
         style="stop-color:#d7a647;stop-opacity:1;"
         offset="0"
         id="stop23" /><stop
         style="stop-color:#d7a647;stop-opacity:0;"
         offset="1"
         id="stop24" /></linearGradient><clipPath
       id="83af46d61e"><path
         d="m 257,219 h 460 v 86.80078 H 257 Z m 0,0"
         clip-rule="nonzero"
         id="path4-9" /></clipPath><clipPath
       id="5c4eef19c9"><rect
         x="0"
         width="460"
         y="0"
         height="87"
         id="rect4" /></clipPath><linearGradient
       xlink:href="#linearGradient56"
       id="linearGradient24"
       x1="1254.4418"
       y1="481.06982"
       x2="1283.1263"
       y2="481.06982"
       gradientUnits="userSpaceOnUse" /><linearGradient
       xlink:href="#linearGradient60"
       id="linearGradient25"
       x1="1202.0009"
       y1="476.77264"
       x2="1255.6519"
       y2="476.77264"
       gradientUnits="userSpaceOnUse" /><linearGradient
       xlink:href="#linearGradient23"
       id="linearGradient26"
       x1="1283.0149"
       y1="476.13535"
       x2="1335.9232"
       y2="476.13535"
       gradientUnits="userSpaceOnUse" /><linearGradient
       xlink:href="#linearGradient58"
       id="linearGradient27"
       x1="1282.9851"
       y1="476.13531"
       x2="1335.9534"
       y2="476.13531"
       gradientUnits="userSpaceOnUse" /><linearGradient
       xlink:href="#linearGradient74"
       id="linearGradient28"
       x1="6.2276902"
       y1="117.55758"
       x2="148.02457"
       y2="117.55758"
       gradientUnits="userSpaceOnUse" /><linearGradient
       xlink:href="#linearGradient51"
       id="linearGradient30"
       x1="255.94038"
       y1="118.14352"
       x2="331.02521"
       y2="118.14352"
       gradientUnits="userSpaceOnUse" /><linearGradient
       xlink:href="#linearGradient70"
       id="linearGradient31"
       x1="340.49185"
       y1="140.56538"
       x2="421.91373"
       y2="140.56538"
       gradientUnits="userSpaceOnUse" /><linearGradient
       xlink:href="#linearGradient68"
       id="linearGradient32"
       x1="429.95383"
       y1="139.08884"
       x2="540.68823"
       y2="139.08884"
       gradientUnits="userSpaceOnUse" /><linearGradient
       xlink:href="#linearGradient66"
       id="linearGradient33"
       x1="548.3208"
       y1="117.65914"
       x2="657.27393"
       y2="117.65914"
       gradientUnits="userSpaceOnUse" /><linearGradient
       xlink:href="#linearGradient64"
       id="linearGradient34"
       x1="664.72009"
       y1="140.37144"
       x2="758.34509"
       y2="140.37144"
       gradientUnits="userSpaceOnUse" /><linearGradient
       xlink:href="#linearGradient62"
       id="linearGradient35"
       x1="764.42377"
       y1="140.37009"
       x2="867.86127"
       y2="140.37009"
       gradientUnits="userSpaceOnUse" /><linearGradient
       xlink:href="#linearGradient38"
       id="linearGradient37"
       x1="260.14487"
       y1="261.18631"
       x2="715.51611"
       y2="261.18631"
       gradientUnits="userSpaceOnUse" /><linearGradient
       xlink:href="#linearGradient49"
       id="linearGradient48"
       gradientUnits="userSpaceOnUse"
       x1="874.32251"
       y1="140.37144"
       x2="967.94751"
       y2="140.37144" /><linearGradient
       xlink:href="#linearGradient72"
       id="linearGradient55"
       gradientUnits="userSpaceOnUse"
       x1="158.81531"
       y1="140.86227"
       x2="247.90906"
       y2="140.86227" /><linearGradient
       xlink:href="#linearGradient74"
       id="linearGradient1"
       gradientUnits="userSpaceOnUse"
       x1="6.2276902"
       y1="117.55758"
       x2="148.02457"
       y2="117.55758" /><linearGradient
       xlink:href="#linearGradient74"
       id="linearGradient2"
       gradientUnits="userSpaceOnUse"
       x1="6.2276902"
       y1="117.55758"
       x2="148.02457"
       y2="117.55758" /><linearGradient
       xlink:href="#linearGradient74"
       id="linearGradient3"
       gradientUnits="userSpaceOnUse"
       x1="6.2276902"
       y1="117.55758"
       x2="148.02457"
       y2="117.55758" /><linearGradient
       xlink:href="#linearGradient72"
       id="linearGradient4"
       gradientUnits="userSpaceOnUse"
       x1="158.81531"
       y1="140.86227"
       x2="247.90906"
       y2="140.86227" /><linearGradient
       xlink:href="#linearGradient72"
       id="linearGradient5"
       gradientUnits="userSpaceOnUse"
       x1="158.81531"
       y1="140.86227"
       x2="247.90906"
       y2="140.86227" /><linearGradient
       xlink:href="#linearGradient72"
       id="linearGradient6"
       gradientUnits="userSpaceOnUse"
       x1="158.81531"
       y1="140.86227"
       x2="247.90906"
       y2="140.86227" /><linearGradient
       xlink:href="#linearGradient51"
       id="linearGradient7"
       gradientUnits="userSpaceOnUse"
       x1="255.94038"
       y1="118.14352"
       x2="331.02521"
       y2="118.14352" /><linearGradient
       xlink:href="#linearGradient51"
       id="linearGradient8"
       gradientUnits="userSpaceOnUse"
       x1="255.94038"
       y1="118.14352"
       x2="331.02521"
       y2="118.14352" /><linearGradient
       xlink:href="#linearGradient51"
       id="linearGradient9"
       gradientUnits="userSpaceOnUse"
       x1="255.94038"
       y1="118.14352"
       x2="331.02521"
       y2="118.14352" /><linearGradient
       xlink:href="#linearGradient70"
       id="linearGradient10"
       gradientUnits="userSpaceOnUse"
       x1="340.49185"
       y1="140.56538"
       x2="421.91373"
       y2="140.56538" /><linearGradient
       xlink:href="#linearGradient70"
       id="linearGradient11"
       gradientUnits="userSpaceOnUse"
       x1="340.49185"
       y1="140.56538"
       x2="421.91373"
       y2="140.56538" /><linearGradient
       xlink:href="#linearGradient70"
       id="linearGradient12"
       gradientUnits="userSpaceOnUse"
       x1="340.49185"
       y1="140.56538"
       x2="421.91373"
       y2="140.56538" /><linearGradient
       xlink:href="#linearGradient68"
       id="linearGradient13"
       gradientUnits="userSpaceOnUse"
       x1="429.95383"
       y1="139.08884"
       x2="540.68823"
       y2="139.08884" /><linearGradient
       xlink:href="#linearGradient68"
       id="linearGradient14"
       gradientUnits="userSpaceOnUse"
       x1="429.95383"
       y1="139.08884"
       x2="540.68823"
       y2="139.08884" /><linearGradient
       xlink:href="#linearGradient68"
       id="linearGradient15"
       gradientUnits="userSpaceOnUse"
       x1="429.95383"
       y1="139.08884"
       x2="540.68823"
       y2="139.08884" /><linearGradient
       xlink:href="#linearGradient66"
       id="linearGradient16"
       gradientUnits="userSpaceOnUse"
       x1="548.3208"
       y1="117.65914"
       x2="657.27393"
       y2="117.65914" /><linearGradient
       xlink:href="#linearGradient66"
       id="linearGradient17"
       gradientUnits="userSpaceOnUse"
       x1="548.3208"
       y1="117.65914"
       x2="657.27393"
       y2="117.65914" /><linearGradient
       xlink:href="#linearGradient66"
       id="linearGradient18"
       gradientUnits="userSpaceOnUse"
       x1="548.3208"
       y1="117.65914"
       x2="657.27393"
       y2="117.65914" /><linearGradient
       xlink:href="#linearGradient64"
       id="linearGradient19"
       gradientUnits="userSpaceOnUse"
       x1="664.72009"
       y1="140.37144"
       x2="758.34509"
       y2="140.37144" /><linearGradient
       xlink:href="#linearGradient64"
       id="linearGradient20"
       gradientUnits="userSpaceOnUse"
       x1="664.72009"
       y1="140.37144"
       x2="758.34509"
       y2="140.37144" /><linearGradient
       xlink:href="#linearGradient64"
       id="linearGradient21"
       gradientUnits="userSpaceOnUse"
       x1="664.72009"
       y1="140.37144"
       x2="758.34509"
       y2="140.37144" /><linearGradient
       xlink:href="#linearGradient62"
       id="linearGradient22"
       gradientUnits="userSpaceOnUse"
       x1="764.42377"
       y1="140.37009"
       x2="867.86127"
       y2="140.37009" /><linearGradient
       xlink:href="#linearGradient62"
       id="linearGradient29"
       gradientUnits="userSpaceOnUse"
       x1="764.42377"
       y1="140.37009"
       x2="867.86127"
       y2="140.37009" /><linearGradient
       xlink:href="#linearGradient62"
       id="linearGradient36"
       gradientUnits="userSpaceOnUse"
       x1="764.42377"
       y1="140.37009"
       x2="867.86127"
       y2="140.37009" /><linearGradient
       xlink:href="#linearGradient49"
       id="linearGradient39"
       gradientUnits="userSpaceOnUse"
       x1="874.32251"
       y1="140.37144"
       x2="967.94751"
       y2="140.37144" /><linearGradient
       xlink:href="#linearGradient49"
       id="linearGradient40"
       gradientUnits="userSpaceOnUse"
       x1="874.32251"
       y1="140.37144"
       x2="967.94751"
       y2="140.37144" /><linearGradient
       xlink:href="#linearGradient49"
       id="linearGradient41"
       gradientUnits="userSpaceOnUse"
       x1="874.32251"
       y1="140.37144"
       x2="967.94751"
       y2="140.37144" /><linearGradient
       xlink:href="#linearGradient38"
       id="linearGradient42"
       gradientUnits="userSpaceOnUse"
       x1="260.14487"
       y1="261.18631"
       x2="715.51611"
       y2="261.18631" /><linearGradient
       xlink:href="#linearGradient38"
       id="linearGradient43"
       gradientUnits="userSpaceOnUse"
       x1="260.14487"
       y1="261.18631"
       x2="715.51611"
       y2="261.18631" /><linearGradient
       xlink:href="#linearGradient38"
       id="linearGradient44"
       gradientUnits="userSpaceOnUse"
       x1="260.14487"
       y1="261.18631"
       x2="715.51611"
       y2="261.18631" /><linearGradient
       xlink:href="#linearGradient38"
       id="linearGradient45"
       gradientUnits="userSpaceOnUse"
       x1="260.14487"
       y1="261.18631"
       x2="715.51611"
       y2="261.18631" /><linearGradient
       xlink:href="#linearGradient38"
       id="linearGradient46"
       gradientUnits="userSpaceOnUse"
       x1="260.14487"
       y1="261.18631"
       x2="715.51611"
       y2="261.18631" /><linearGradient
       xlink:href="#linearGradient38"
       id="linearGradient47"
       gradientUnits="userSpaceOnUse"
       x1="260.14487"
       y1="261.18631"
       x2="715.51611"
       y2="261.18631" /><linearGradient
       xlink:href="#linearGradient38"
       id="linearGradient50"
       gradientUnits="userSpaceOnUse"
       x1="260.14487"
       y1="261.18631"
       x2="715.51611"
       y2="261.18631" /><linearGradient
       xlink:href="#linearGradient38"
       id="linearGradient52"
       gradientUnits="userSpaceOnUse"
       x1="260.14487"
       y1="261.18631"
       x2="715.51611"
       y2="261.18631" /><linearGradient
       xlink:href="#linearGradient38"
       id="linearGradient53"
       gradientUnits="userSpaceOnUse"
       x1="260.14487"
       y1="261.18631"
       x2="715.51611"
       y2="261.18631" /><linearGradient
       xlink:href="#linearGradient38"
       id="linearGradient54"
       gradientUnits="userSpaceOnUse"
       x1="260.14487"
       y1="261.18631"
       x2="715.51611"
       y2="261.18631" /><linearGradient
       xlink:href="#linearGradient38"
       id="linearGradient57"
       gradientUnits="userSpaceOnUse"
       x1="260.14487"
       y1="261.18631"
       x2="715.51611"
       y2="261.18631" /><linearGradient
       xlink:href="#linearGradient38"
       id="linearGradient59"
       gradientUnits="userSpaceOnUse"
       x1="260.14487"
       y1="261.18631"
       x2="715.51611"
       y2="261.18631" /><linearGradient
       xlink:href="#linearGradient38"
       id="linearGradient61"
       gradientUnits="userSpaceOnUse"
       x1="260.14487"
       y1="261.18631"
       x2="715.51611"
       y2="261.18631" /><linearGradient
       xlink:href="#linearGradient38"
       id="linearGradient63"
       gradientUnits="userSpaceOnUse"
       x1="260.14487"
       y1="261.18631"
       x2="715.51611"
       y2="261.18631" /><linearGradient
       xlink:href="#linearGradient38"
       id="linearGradient65"
       gradientUnits="userSpaceOnUse"
       x1="260.14487"
       y1="261.18631"
       x2="715.51611"
       y2="261.18631" /><linearGradient
       xlink:href="#linearGradient38"
       id="linearGradient67"
       gradientUnits="userSpaceOnUse"
       x1="260.14487"
       y1="261.18631"
       x2="715.51611"
       y2="261.18631" /><linearGradient
       xlink:href="#linearGradient38"
       id="linearGradient69"
       gradientUnits="userSpaceOnUse"
       x1="260.14487"
       y1="261.18631"
       x2="715.51611"
       y2="261.18631" /><linearGradient
       xlink:href="#linearGradient38"
       id="linearGradient71"
       gradientUnits="userSpaceOnUse"
       x1="260.14487"
       y1="261.18631"
       x2="715.51611"
       y2="261.18631" /><linearGradient
       xlink:href="#linearGradient38"
       id="linearGradient73"
       gradientUnits="userSpaceOnUse"
       x1="260.14487"
       y1="261.18631"
       x2="715.51611"
       y2="261.18631" /><linearGradient
       xlink:href="#linearGradient38"
       id="linearGradient75"
       gradientUnits="userSpaceOnUse"
       x1="260.14487"
       y1="261.18631"
       x2="715.51611"
       y2="261.18631" /><linearGradient
       xlink:href="#linearGradient38"
       id="linearGradient76"
       gradientUnits="userSpaceOnUse"
       x1="260.14487"
       y1="261.18631"
       x2="715.51611"
       y2="261.18631" /><linearGradient
       xlink:href="#linearGradient38"
       id="linearGradient77"
       gradientUnits="userSpaceOnUse"
       x1="260.14487"
       y1="261.18631"
       x2="715.51611"
       y2="261.18631" /><linearGradient
       xlink:href="#linearGradient38"
       id="linearGradient78"
       gradientUnits="userSpaceOnUse"
       x1="260.14487"
       y1="261.18631"
       x2="715.51611"
       y2="261.18631" /><linearGradient
       xlink:href="#linearGradient38"
       id="linearGradient79"
       gradientUnits="userSpaceOnUse"
       x1="260.14487"
       y1="261.18631"
       x2="715.51611"
       y2="261.18631" /><linearGradient
       xlink:href="#linearGradient38"
       id="linearGradient80"
       gradientUnits="userSpaceOnUse"
       x1="260.14487"
       y1="261.18631"
       x2="715.51611"
       y2="261.18631" /><linearGradient
       xlink:href="#linearGradient38"
       id="linearGradient81"
       gradientUnits="userSpaceOnUse"
       x1="260.14487"
       y1="261.18631"
       x2="715.51611"
       y2="261.18631" /><linearGradient
       xlink:href="#linearGradient38"
       id="linearGradient82"
       gradientUnits="userSpaceOnUse"
       x1="260.14487"
       y1="261.18631"
       x2="715.51611"
       y2="261.18631" /><linearGradient
       xlink:href="#linearGradient38"
       id="linearGradient83"
       gradientUnits="userSpaceOnUse"
       x1="260.14487"
       y1="261.18631"
       x2="715.51611"
       y2="261.18631" /><linearGradient
       xlink:href="#linearGradient38"
       id="linearGradient84"
       gradientUnits="userSpaceOnUse"
       x1="260.14487"
       y1="261.18631"
       x2="715.51611"
       y2="261.18631" /><linearGradient
       xlink:href="#linearGradient38"
       id="linearGradient85"
       gradientUnits="userSpaceOnUse"
       x1="260.14487"
       y1="261.18631"
       x2="715.51611"
       y2="261.18631" /><linearGradient
       xlink:href="#linearGradient38"
       id="linearGradient86"
       gradientUnits="userSpaceOnUse"
       x1="260.14487"
       y1="261.18631"
       x2="715.51611"
       y2="261.18631" /><linearGradient
       xlink:href="#linearGradient38"
       id="linearGradient87"
       gradientUnits="userSpaceOnUse"
       x1="260.14487"
       y1="261.18631"
       x2="715.51611"
       y2="261.18631" /><linearGradient
       xlink:href="#linearGradient38"
       id="linearGradient88"
       gradientUnits="userSpaceOnUse"
       x1="260.14487"
       y1="261.18631"
       x2="715.51611"
       y2="261.18631" /><linearGradient
       xlink:href="#linearGradient38"
       id="linearGradient89"
       gradientUnits="userSpaceOnUse"
       x1="260.14487"
       y1="261.18631"
       x2="715.51611"
       y2="261.18631" /><linearGradient
       xlink:href="#linearGradient38"
       id="linearGradient90"
       gradientUnits="userSpaceOnUse"
       x1="260.14487"
       y1="261.18631"
       x2="715.51611"
       y2="261.18631" /><linearGradient
       xlink:href="#linearGradient38"
       id="linearGradient91"
       gradientUnits="userSpaceOnUse"
       x1="260.14487"
       y1="261.18631"
       x2="715.51611"
       y2="261.18631" /><linearGradient
       xlink:href="#linearGradient38"
       id="linearGradient92"
       gradientUnits="userSpaceOnUse"
       x1="260.14487"
       y1="261.18631"
       x2="715.51611"
       y2="261.18631" /><linearGradient
       xlink:href="#linearGradient38"
       id="linearGradient93"
       gradientUnits="userSpaceOnUse"
       x1="260.14487"
       y1="261.18631"
       x2="715.51611"
       y2="261.18631" /><linearGradient
       xlink:href="#linearGradient38"
       id="linearGradient94"
       gradientUnits="userSpaceOnUse"
       x1="260.14487"
       y1="261.18631"
       x2="715.51611"
       y2="261.18631" /><linearGradient
       xlink:href="#linearGradient38"
       id="linearGradient95"
       gradientUnits="userSpaceOnUse"
       x1="260.14487"
       y1="261.18631"
       x2="715.51611"
       y2="261.18631" /><linearGradient
       xlink:href="#linearGradient38"
       id="linearGradient96"
       gradientUnits="userSpaceOnUse"
       x1="260.14487"
       y1="261.18631"
       x2="715.51611"
       y2="261.18631" /><linearGradient
       xlink:href="#linearGradient38"
       id="linearGradient97"
       gradientUnits="userSpaceOnUse"
       x1="260.14487"
       y1="261.18631"
       x2="715.51611"
       y2="261.18631" /><linearGradient
       xlink:href="#linearGradient38"
       id="linearGradient98"
       gradientUnits="userSpaceOnUse"
       x1="260.14487"
       y1="261.18631"
       x2="715.51611"
       y2="261.18631" /><linearGradient
       xlink:href="#linearGradient38"
       id="linearGradient99"
       gradientUnits="userSpaceOnUse"
       x1="260.14487"
       y1="261.18631"
       x2="715.51611"
       y2="261.18631" /><linearGradient
       xlink:href="#linearGradient38"
       id="linearGradient100"
       gradientUnits="userSpaceOnUse"
       x1="260.14487"
       y1="261.18631"
       x2="715.51611"
       y2="261.18631" /></defs><g
     id="g1-1"
     transform="matrix(0.26458333,0,0,0.26458334,-12.392079,-116.38781)"><path
       id="path3"
       style="mix-blend-mode:lighten;fill:#d7a647;stroke:url(#linearGradient24);stroke-width:0.885114;stroke-opacity:1"
       d="m 1282.6838,481.06982 a 13.899699,12.698498 0 0 1 -13.8997,12.6985 13.899699,12.698498 0 0 1 -13.8997,-12.6985 13.899699,12.698498 0 0 1 13.8997,-12.69849 13.899699,12.698498 0 0 1 13.8997,12.69849 z" /><path
       style="mix-blend-mode:lighten;fill:#d7a647;fill-opacity:1;stroke:url(#linearGradient25);stroke-width:1.06205;stroke-dasharray:none;stroke-opacity:1"
       d="m 1252.2997,477.21417 1.166,-1.62847 -0.7692,-2.33979 -7.7289,-8.54476 -11.1186,-7.62253 -10.8065,-3.67107 -6.5416,-1.48717 -7.2568,0.88902 -6.3738,8.12712 -0.3382,13.08636 2.6181,17.29351 7.8638,10.30254 11.9047,-0.59524 17.8247,-5.63353 9.103,-5.90429 2.8549,-2.53202 -1.6561,-0.7891 -8.281,2.06148 -11.6128,3.94958 -8.8071,1.6932 -7.1636,-0.385 -3.2571,-5.87195 -1.562,-7.45828 -0.6572,-12.83849 2.8969,-5.97414 5.5635,-0.60727 12.661,5.46832 10.7957,6.35144 4.8547,3.9673 1.4011,0.98056 z"
       id="path4" /><path
       d="m 1284.9082,476.81734 c -0.3713,-0.76758 -1.5353,-1.41384 -0.9353,-2.33009 0.2563,-1.05852 0.6746,-2.02288 1.5294,-2.73363 2.3429,-2.52086 4.5628,-5.18245 6.9817,-7.61635 3.6777,-2.48882 7.307,-5.07425 11.0148,-7.50299 5.5564,-1.8848 11.1023,-3.80155 16.6926,-5.58445 2.5908,0.45425 5.1816,0.90849 7.7724,1.36274 2.1134,2.76689 4.3932,5.45735 6.4025,8.27201 0.4465,2.41799 1.1457,4.80908 0.9891,7.29127 0.064,3.11463 0.1846,6.23123 -0.2258,9.32928 -0.1509,2.05455 -0.2758,4.1138 -0.9845,6.068 -0.7642,2.59341 -1.3604,5.2545 -2.228,7.80627 -0.9988,1.72974 -1.8175,3.59358 -2.9297,5.23889 -1.5978,1.60127 -3.1957,3.20254 -4.7935,4.80381 -4.1112,-0.24463 -8.2407,-0.33366 -12.3404,-0.67615 -3.3913,-0.68774 -6.841,-1.15364 -10.1953,-1.98178 -3.1056,-1.11211 -6.2753,-2.0733 -9.3404,-3.28061 -2.8789,-1.32821 -5.3107,-3.39819 -7.3084,-5.83621 -0.3921,-0.6794 -1.8015,-1.12131 -1.4442,-1.97565 0.359,-0.73159 0.3126,-2.21472 1.4575,-1.48969 3.8559,0.97223 7.7539,1.80117 11.4765,3.22668 2.8179,0.87956 5.5582,2.05261 8.4276,2.73761 2.7456,0.47964 5.4781,1.14973 8.2318,1.51003 2.2895,-0.12305 4.5791,-0.2461 6.8686,-0.36915 1.0881,-2.06169 2.3574,-4.05041 3.3329,-6.15749 0.6371,-2.58628 1.4627,-5.14602 1.9834,-7.7487 0.04,-3.77942 0.2303,-7.58512 0.177,-11.34812 -0.831,-2.15588 -1.662,-4.31177 -2.493,-6.46765 -2.0176,-0.14311 -4.0549,-0.56408 -6.0604,-0.53533 -2.3049,0.67457 -4.7848,0.8895 -6.8417,2.21524 -4.8239,2.45386 -9.5689,5.05194 -14.2358,7.79252 -3.2182,1.55977 -5.5869,4.33341 -8.559,6.26702 -0.8075,-0.0958 -1.6149,-0.19155 -2.4224,-0.28733 z"
       id="path1"
       style="stroke:url(#linearGradient26);stroke-opacity:1" /><path
       style="mix-blend-mode:lighten;fill:#d7a647;fill-opacity:1;stroke:url(#linearGradient27);stroke-width:1.06205;stroke-dasharray:none;stroke-opacity:1"
       d="m 1284.9082,476.81734 c -0.3713,-0.76758 -1.5353,-1.41384 -0.9353,-2.33009 0.2563,-1.05852 0.6746,-2.02288 1.5294,-2.73363 2.3429,-2.52086 4.5628,-5.18245 6.9817,-7.61635 3.6777,-2.48882 7.307,-5.07425 11.0148,-7.50299 5.5564,-1.8848 11.1023,-3.80155 16.6926,-5.58445 2.5908,0.45425 5.1816,0.90849 7.7724,1.36274 2.1134,2.76689 4.3932,5.45735 6.4025,8.27201 0.4465,2.41799 1.1457,4.80908 0.9891,7.29127 0.064,3.11463 0.1846,6.23123 -0.2258,9.32928 -0.1509,2.05455 -0.2758,4.1138 -0.9845,6.068 -0.7642,2.59341 -1.3604,5.2545 -2.228,7.80627 -0.9988,1.72974 -1.8175,3.59358 -2.9297,5.23889 -1.5978,1.60127 -3.1957,3.20254 -4.7935,4.80381 -4.1112,-0.24463 -8.2407,-0.33366 -12.3404,-0.67615 -3.3913,-0.68774 -6.841,-1.15364 -10.1953,-1.98178 -3.1056,-1.11211 -6.2753,-2.0733 -9.3404,-3.28061 -2.8789,-1.32821 -5.3107,-3.39819 -7.3084,-5.83621 -0.3921,-0.6794 -1.8015,-1.12131 -1.4442,-1.97565 0.359,-0.73159 0.3126,-2.21472 1.4575,-1.48969 3.8559,0.97223 7.7539,1.80117 11.4765,3.22668 2.8179,0.87956 5.5582,2.05261 8.4276,2.73761 2.7456,0.47964 5.4781,1.14973 8.2318,1.51003 2.2895,-0.12305 4.5791,-0.2461 6.8686,-0.36915 1.0881,-2.06169 2.3574,-4.05041 3.3329,-6.15749 0.6371,-2.58628 1.4627,-5.14602 1.9834,-7.7487 0.04,-3.77942 0.2303,-7.58512 0.177,-11.34812 -0.831,-2.15588 -1.662,-4.31177 -2.493,-6.46765 -2.0176,-0.14311 -4.0549,-0.56408 -6.0604,-0.53533 -2.3049,0.67457 -4.7848,0.8895 -6.8417,2.21524 -4.8239,2.45386 -9.5689,5.05194 -14.2358,7.79252 -3.2182,1.55977 -5.5869,4.33341 -8.559,6.26702 -0.8075,-0.0958 -1.6149,-0.19155 -2.4224,-0.28733 z"
       id="path5" /><g
       fill="#d7a647"
       fill-opacity="1"
       id="g11"
       transform="matrix(1.3333334,0,0,1.3333333,38.532623,374.92874)"
       style="stroke:url(#linearGradient28);stroke-opacity:1"><g
         transform="translate(0.63394,185.29977)"
         id="g10"
         style="stroke:url(#linearGradient3);stroke-opacity:1"><g
           id="g9"
           style="stroke:url(#linearGradient2);stroke-opacity:1"><path
             d="M 146.89062,-6.09375 V 0 H 88.6875 v -6.09375 c 9.4375,0 14.15625,-1.703125 14.15625,-5.109375 0,-1.96875 -0.65625,-4.066406 -1.96875,-6.296875 L 67.640625,-74.140625 42.28125,-45.234375 V -6.09375 H 60.5625 V 0 H 6.09375 V -6.09375 H 24.390625 V -129.39062 H 6.09375 v -6.09375 h 54.859375 v 6.09375 H 42.671875 V -56.625 L 95.5625,-115.23438 c 2.488281,-2.48828 3.734375,-4.71093 3.734375,-6.67187 0,-1.96875 -0.558594,-3.73828 -1.671875,-5.3125 -1.117188,-1.58203 -5.277344,-2.30469 -12.484375,-2.17187 v -6.09375 H 134.3125 v 6.09375 c -8.52344,0 -14.45312,1.11718 -17.79687,3.34374 -3.34375,2.23047 -8.42969,7.21094 -15.25,14.9375 l -19.656255,22.031255 41.484375,71.96875 c 0.13281,0.398437 0.46094,1.054687 0.98438,1.96875 l 1.1875,2.15625 c 1.95703,3.28125 4.05078,5.320313 6.28124,6.109375 1.1875,0.523438 6.30079,0.78125 15.34375,0.78125 z m 0,0"
             id="path8"
             style="stroke:url(#linearGradient1);stroke-opacity:1" /></g></g></g><g
       fill="#d7a647"
       fill-opacity="1"
       id="g14"
       transform="matrix(1.3333334,0,0,1.3333333,38.532623,374.92874)"
       style="stroke:url(#linearGradient55);stroke-opacity:1"><g
         transform="translate(153.01844,185.29977)"
         id="g13"
         style="stroke:url(#linearGradient6);stroke-opacity:1"><g
           id="g12"
           style="stroke:url(#linearGradient5);stroke-opacity:1"><path
             d="M 94.390625,-5.5 V 0 H 62.921875 V -16.125 C 51.253906,-3.800781 40.242188,2.359375 29.890625,2.359375 c -6.949219,0 -12.523437,-2.03125 -16.71875,-6.09375 -4.585937,-4.0625 -6.875,-9.832031 -6.875,-17.3125 0,-10.351563 3.992187,-18.085937 11.984375,-23.203125 6.03125,-3.664062 14.488281,-6.484375 25.375,-8.453125 l 19.265625,-3.34375 C 63.179688,-65.347656 62.394531,-72.164062 60.5625,-76.5 57.9375,-82.65625 53.414062,-85.734375 47,-85.734375 c -11.148438,0 -16.78125,3.734375 -16.90625,11.203125 0,1.3125 0.75,2.855469 2.25,4.625 1.507812,1.773438 2.265625,2.726562 2.265625,2.859375 0.132813,1.960937 -0.820313,3.59375 -2.859375,4.90625 -2.03125,1.3125 -3.898438,1.773437 -5.59375,1.375 -6.554688,0 -9.765625,-3.632813 -9.640625,-10.90625 0.132813,-7.28125 4.660156,-12.753906 13.578125,-16.421875 5.5,-2.09375 11.332031,-3.140625 17.5,-3.140625 10.351562,0 18.085938,2.882813 23.203125,8.640625 5.101563,6.292969 7.65625,16.257812 7.65625,29.890625 v 42.875 c 0,1.3125 0.457031,2.367187 1.375,3.15625 0.925781,0.78125 1.976563,1.171875 3.15625,1.171875 z m -31.46875,-18.484375 v -25.5625 c -11.40625,1.4375 -20.777344,3.601563 -28.109375,6.484375 -3.417969,1.3125 -6.242188,3.742188 -8.46875,7.28125 C 24.113281,-32.25 23,-28.382812 23,-24.1875 c 0,4.199219 1.472656,7.742188 4.421875,10.625 2.957031,2.886719 6.5,4.429688 10.625,4.625 4.132813,0.1875 8.523437,-1.191406 13.171875,-4.140625 4.65625,-2.945313 8.554688,-6.582031 11.703125,-10.90625 z m 0,0"
             id="path11"
             style="stroke:url(#linearGradient4);stroke-opacity:1" /></g></g></g><g
       fill="#d7a647"
       fill-opacity="1"
       id="g17"
       transform="matrix(1.3333334,0,0,1.3333333,38.532623,374.92874)"
       style="stroke:url(#linearGradient30);stroke-opacity:1"><g
         transform="translate(251.33102,185.29977)"
         id="g16"
         style="stroke:url(#linearGradient9);stroke-opacity:1"><g
           id="g15"
           style="stroke:url(#linearGradient8);stroke-opacity:1"><path
             d="m 21.828125,-49.953125 c 0,-11.269531 3.929687,-20.117187 11.796875,-26.546875 6.164062,-5.101562 12.195312,-7.65625 18.09375,-7.65625 8.644531,0 13.164062,2.230469 13.5625,6.6875 0.394531,1.574219 -0.589844,3.078125 -2.953125,4.515625 -2.09375,1.054687 -3.339844,2.304687 -3.734375,3.75 -0.386719,1.4375 0.46875,2.714844 2.5625,3.828125 2.09375,1.105469 4.382812,1.65625 6.875,1.65625 2.5,0 4.859375,-0.914062 7.078125,-2.75 2.226563,-1.832031 3.441406,-4.550781 3.640625,-8.15625 0.195312,-3.601562 -1.542969,-7.140625 -5.21875,-10.609375 -3.667969,-3.476563 -9.5625,-5.476563 -17.6875,-6 -14.023438,-0.53125 -26.078125,4.121094 -36.171875,13.953125 -9.710937,10.09375 -14.5625,21.859375 -14.5625,35.296875 0,13.4375 4.328125,24.289063 12.984375,32.546875 8.257812,7.46875 18.515625,11.203125 30.765625,11.203125 12.257813,0 22.320313,-4.128906 30.1875,-12.390625 l -1.96875,-2.75 c -6.417969,3.679688 -12.96875,5.515625 -19.65625,5.515625 -9.835937,0 -18.226563,-3.472656 -25.171875,-10.421875 -6.949219,-6.945312 -10.421875,-17.503906 -10.421875,-31.671875 z m 55.25,-86.124995 -23.984375,32.06249 H 41.296875 l -24,-32.06249 h 6.6875 L 47,-116.40625 70.390625,-136.07812 Z m 0,0"
             id="path14"
             style="stroke:url(#linearGradient7);stroke-opacity:1" /></g></g></g><g
       fill="#d7a647"
       fill-opacity="1"
       id="g20"
       transform="matrix(1.3333334,0,0,1.3333333,38.532623,374.92874)"
       style="stroke:url(#linearGradient31);stroke-opacity:1"><g
         transform="translate(336.2731,185.29977)"
         id="g19"
         style="stroke:url(#linearGradient12);stroke-opacity:1"><g
           id="g18"
           style="stroke:url(#linearGradient11);stroke-opacity:1"><path
             d="M 84.75,-45.625 H 22.21875 c 0,11.542969 2.882812,20.523438 8.65625,26.9375 5.894531,6.949219 14.546875,10.421875 25.953125,10.421875 6.03125,0 13.832031,-3.007813 23.40625,-9.03125 l 2.546875,1.953125 C 73.476562,-3.9375 61.941406,1.765625 48.171875,1.765625 34.410156,1.765625 23.597656,-2.363281 15.734375,-10.625 8.390625,-18.613281 4.71875,-29.226562 4.71875,-42.46875 c 0,-13.238281 3.960938,-24.675781 11.890625,-34.3125 7.9375,-9.632812 18.585937,-14.453125 31.953125,-14.453125 11.019531,0 19.867188,3.703125 26.546875,11.109375 6.6875,7.40625 10.03125,16.484375 10.03125,27.234375 0,1.4375 -0.132813,3.859375 -0.390625,7.265625 z m -16.90625,-7.078125 c 0,-9.4375 -1.742188,-17.171875 -5.21875,-23.203125 -3.46875,-6.03125 -8.679688,-9.046875 -15.625,-9.046875 -6.949219,0 -12.78125,2.824219 -17.5,8.46875 -4.71875,5.636719 -7.078125,13.433594 -7.078125,23.390625 24.507813,0.65625 39.648437,0.789062 45.421875,0.390625 z m 0,0"
             id="path17"
             style="stroke:url(#linearGradient10);stroke-opacity:1" /></g></g></g><g
       fill="#d7a647"
       fill-opacity="1"
       id="g23"
       transform="matrix(1.3333334,0,0,1.3333333,38.532623,374.92874)"
       style="stroke:url(#linearGradient32);stroke-opacity:1"><g
         transform="translate(427.70383,185.29977)"
         id="g22"
         style="stroke:url(#linearGradient15);stroke-opacity:1"><g
           id="g21"
           style="stroke:url(#linearGradient14);stroke-opacity:1"><path
             d="M 112.48438,-5.3125 V 0 H 64.5 v -5.3125 h 11.59375 c 2.5,0 3.941406,-1.503906 4.328125,-4.515625 V -56.4375 c 0,-7.601562 -1.96875,-13.535156 -5.90625,-17.796875 C 70.585938,-78.492188 65.539062,-80.625 59.375,-80.625 c -6.15625,0 -11.855469,2.03125 -17.09375,6.09375 -4.980469,4.199219 -7.46875,8.132812 -7.46875,11.796875 v 52.90625 c 0.382812,3.011719 1.890625,4.515625 4.515625,4.515625 h 11.40625 V 0 H 2.75 v -5.3125 h 11.40625 c 2.625,0 4.132812,-1.503906 4.53125,-4.515625 V -77.875 C 18.550781,-82.332031 16.320312,-84.5625 12,-84.5625 H 2.75 v -5.296875 H 35 v 5.296875 c -0.125,1.574219 -0.1875,3.414062 -0.1875,5.515625 v 3.9375 c 1.039062,-2.5 3.789062,-5.648437 8.25,-9.453125 6.6875,-5.238281 13.960938,-7.859375 21.828125,-7.859375 21.101563,0 31.65625,11.210937 31.65625,33.625 v 48.96875 c 0.394531,3.011719 1.90625,4.515625 4.531255,4.515625 z m 0,0"
             id="path20"
             style="stroke:url(#linearGradient13);stroke-opacity:1" /></g></g></g><g
       fill="#d7a647"
       fill-opacity="1"
       id="g26"
       transform="matrix(1.3333334,0,0,1.3333333,38.532623,374.92874)"
       style="stroke:url(#linearGradient33);stroke-opacity:1"><g
         transform="translate(544.6958,185.29977)"
         id="g25"
         style="stroke:url(#linearGradient18);stroke-opacity:1"><g
           id="g24"
           style="stroke:url(#linearGradient17);stroke-opacity:1"><path
             d="m 63.3125,-5.3125 c 5.644531,0.398438 8.46875,-0.585938 8.46875,-2.953125 0,-1.175781 -0.464844,-2.222656 -1.390625,-3.140625 l -34.796875,-33.625 -0.203125,35.390625 c 0.394531,2.886719 1.835937,4.328125 4.328125,4.328125 H 50.734375 V 0 H 4.125 v -5.3125 h 11.21875 c 2.488281,0 3.929688,-1.441406 4.328125,-4.328125 V -125.65625 c -0.398437,-2.88281 -1.839844,-4.32812 -4.328125,-4.32812 H 4.125 v -5.29688 h 31.46875 v 86.3125 l 13.765625,-10.8125 19.265625,-17.5 c 1.3125,-0.914062 1.96875,-2.0625 1.96875,-3.4375 0,-1.375 -1.046875,-2.0625 -3.140625,-2.0625 h -11.21875 v -5.109375 h 46.812505 v 5.109375 L 94,-82.390625 c -4.855469,0.261719 -10.886719,3.867187 -18.09375,10.8125 l -24.1875,18.6875 c 1.3125,1.960937 5.3125,6.28125 12,12.96875 23.070312,23.074219 36.96875,34.609375 41.6875,34.609375 h 6.67188 V 0 H 63.3125 Z m 0,0"
             id="path23"
             style="stroke:url(#linearGradient16);stroke-opacity:1" /></g></g></g><g
       fill="#d7a647"
       fill-opacity="1"
       id="g29"
       transform="matrix(1.3333334,0,0,1.3333333,38.532623,374.92874)"
       style="stroke:url(#linearGradient34);stroke-opacity:1"><g
         transform="translate(658.34511,185.29977)"
         id="g28"
         style="stroke:url(#linearGradient21);stroke-opacity:1"><g
           id="g27"
           style="stroke:url(#linearGradient20);stroke-opacity:1"><path
             d="m 86.921875,-79.046875 c 8.382813,8.261719 12.578125,19.179687 12.578125,32.75 0,13.5625 -4.65625,24.933594 -13.96875,34.109375 C 76.226562,-3.007812 64.039062,1.707031 48.96875,1.96875 37.03125,2.09375 26.9375,-2.035156 18.6875,-10.421875 10.8125,-18.941406 6.875,-30.179688 6.875,-44.140625 c 0,-13.96875 4.390625,-25.40625 13.171875,-34.3125 8.789063,-8.914063 20.722656,-13.375 35.796875,-13.375 12.457031,0 22.816406,4.261719 31.078125,12.78125 z m -30.09375,74.71875 c 8.257813,0 14.453125,-3.472656 18.578125,-10.421875 4.132812,-6.945312 6.203125,-15.957031 6.203125,-27.03125 0,-11.082031 -2.820313,-21.144531 -8.453125,-30.1875 -5.773438,-8.914062 -12.917969,-13.375 -21.4375,-13.375 -17.960938,0 -26.9375,11.46875 -26.9375,34.40625 0,12.199219 2.226562,22.492188 6.6875,30.875 5.632812,10.492188 14.085938,15.734375 25.359375,15.734375 z m 0,0"
             id="path26"
             style="stroke:url(#linearGradient19);stroke-opacity:1" /></g></g></g><g
       fill="#d7a647"
       fill-opacity="1"
       id="g32"
       transform="matrix(1.3333334,0,0,1.3333333,38.532623,374.92874)"
       style="stroke:url(#linearGradient35);stroke-opacity:1"><g
         transform="translate(763.73626,185.29977)"
         id="g31"
         style="stroke:url(#linearGradient36);stroke-opacity:1"><g
           id="g30"
           style="stroke:url(#linearGradient29);stroke-opacity:1"><path
             d="m 103.625,-89.859375 v 5.296875 h -5.109375 c -3.542969,0 -6.621094,2.824219 -9.234375,8.46875 L 56.4375,0 H 47 L 14.15625,-80.03125 C 12.976562,-83.050781 10.75,-84.5625 7.46875,-84.5625 H 1.1875 v -5.296875 H 46.796875 V -84.5625 H 37.5625 c -3.40625,0 -5.109375,1.25 -5.109375,3.75 0,0.523438 0.128906,1.171875 0.390625,1.953125 L 56.4375,-17.5 l 23,-58.59375 c 0.914062,-2.226562 1.375,-4 1.375,-5.3125 0,-2.101562 -1.117188,-3.15625 -3.34375,-3.15625 h -9.828125 v -5.296875 z m 0,0"
             id="path29"
             style="stroke:url(#linearGradient22);stroke-opacity:1" /></g></g></g><g
       fill="#d7a647"
       fill-opacity="1"
       id="g35"
       transform="matrix(1.3333334,0,0,1.3333333,38.532623,374.92874)"
       style="stroke:url(#linearGradient48);stroke-opacity:1"><g
         transform="translate(867.94754,185.29977)"
         id="g34"
         style="stroke:url(#linearGradient41);stroke-opacity:1"><g
           id="g33"
           style="stroke:url(#linearGradient40);stroke-opacity:1"><path
             d="m 86.921875,-79.046875 c 8.382813,8.261719 12.578125,19.179687 12.578125,32.75 0,13.5625 -4.65625,24.933594 -13.96875,34.109375 C 76.226562,-3.007812 64.039062,1.707031 48.96875,1.96875 37.03125,2.09375 26.9375,-2.035156 18.6875,-10.421875 10.8125,-18.941406 6.875,-30.179688 6.875,-44.140625 c 0,-13.96875 4.390625,-25.40625 13.171875,-34.3125 8.789063,-8.914063 20.722656,-13.375 35.796875,-13.375 12.457031,0 22.816406,4.261719 31.078125,12.78125 z m -30.09375,74.71875 c 8.257813,0 14.453125,-3.472656 18.578125,-10.421875 4.132812,-6.945312 6.203125,-15.957031 6.203125,-27.03125 0,-11.082031 -2.820313,-21.144531 -8.453125,-30.1875 -5.773438,-8.914062 -12.917969,-13.375 -21.4375,-13.375 -17.960938,0 -26.9375,11.46875 -26.9375,34.40625 0,12.199219 2.226562,22.492188 6.6875,30.875 5.632812,10.492188 14.085938,15.734375 25.359375,15.734375 z m 0,0"
             id="path32"
             style="stroke:url(#linearGradient39);stroke-opacity:1" /></g></g></g><g
       clip-path="url(#83af46d61e)"
       id="g71"
       transform="matrix(1.3333334,0,0,1.3333333,38.532623,374.92874)"
       style="stroke:url(#linearGradient37);stroke-opacity:1"><g
         transform="translate(257,219)"
         id="g70"
         style="stroke:url(#linearGradient100);stroke-opacity:1"><g
           clip-path="url(#5c4eef19c9)"
           id="g69"
           style="stroke:url(#linearGradient99);stroke-opacity:1"><g
             fill="#d7a647"
             fill-opacity="1"
             id="g38"
             style="stroke:url(#linearGradient45);stroke-opacity:1"><g
               transform="translate(0.535509,67.069118)"
               id="g37"
               style="stroke:url(#linearGradient44);stroke-opacity:1"><g
                 id="g36"
                 style="stroke:url(#linearGradient43);stroke-opacity:1"><path
                   d="m 48.78125,-23.71875 c 0,6.585938 -2.179688,12.257812 -6.53125,17.015625 -4.355469,4.75 -9.382812,7.03125 -15.078125,6.84375 C 18.609375,-0.140625 10.585938,-0.1875 3.109375,0 v -2.1875 h 6.625 v -44.265625 h -6.625 v -2.1875 c 4.1875,0.242187 7.898437,0.339844 11.140625,0.296875 3.25,-0.05078 7.628906,-0.05469 13.140625,-0.01563 6.632813,0.09375 11.859375,2.34375 15.671875,6.75 3.8125,4.398437 5.71875,10.359375 5.71875,17.890625 z m -10.796875,14.75 c 2.300781,-3.664062 3.414063,-8.734375 3.34375,-15.203125 -0.0625,-6.476563 -0.992187,-11.457031 -2.78125,-14.9375 -2.21875,-4.46875 -5.9375,-6.914063 -11.15625,-7.34375 -4.242187,-0.226563 -8.027344,-0.132813 -11.359375,0.28125 V -2.1875 c 3.195312,0.28125 5.609375,0.421875 7.234375,0.421875 1.625,0 2.953125,-0.046875 3.984375,-0.140625 4.84375,-0.707031 8.421875,-3.0625 10.734375,-7.0625 z m 0,0"
                   id="path35"
                   style="stroke:url(#linearGradient42);stroke-opacity:1" /></g></g></g><g
             fill="#d7a647"
             fill-opacity="1"
             id="g41"
             style="stroke:url(#linearGradient52);stroke-opacity:1"><g
               transform="translate(53.75777,67.069118)"
               id="g40"
               style="stroke:url(#linearGradient50);stroke-opacity:1"><g
                 id="g39"
                 style="stroke:url(#linearGradient47);stroke-opacity:1"><path
                   d="M 33.890625,-1.984375 V 0 H 22.59375 v -5.78125 c -4.1875,4.417969 -8.140625,6.625 -11.859375,6.625 -2.5,0 -4.5,-0.730469 -6,-2.1875 -1.648437,-1.457031 -2.46875,-3.523438 -2.46875,-6.203125 0,-3.71875 1.429687,-6.5 4.296875,-8.34375 2.164062,-1.3125 5.203125,-2.320313 9.109375,-3.03125 L 22.59375,-20.125 c 0.09375,-3.332031 -0.1875,-5.78125 -0.84375,-7.34375 -0.949219,-2.207031 -2.574219,-3.3125 -4.875,-3.3125 -4,0 -6.027344,1.34375 -6.078125,4.03125 0,0.46875 0.269531,1.023438 0.8125,1.65625 0.539063,0.636719 0.8125,0.976562 0.8125,1.015625 0.05078,0.710937 -0.289063,1.296875 -1.015625,1.765625 -0.730469,0.46875 -1.402344,0.636719 -2.015625,0.5 -2.355469,0 -3.511719,-1.304688 -3.46875,-3.921875 0.050781,-2.613281 1.675781,-4.578125 4.875,-5.890625 1.976563,-0.75 4.070313,-1.125 6.28125,-1.125 3.71875,0 6.492187,1.03125 8.328125,3.09375 1.84375,2.261719 2.765625,5.839844 2.765625,10.734375 V -3.53125 c 0,0.46875 0.160156,0.84375 0.484375,1.125 0.332031,0.28125 0.710938,0.421875 1.140625,0.421875 z m -11.296875,-6.625 v -9.1875 c -4.09375,0.523437 -7.460938,1.304687 -10.09375,2.34375 -1.230469,0.46875 -2.246094,1.339844 -3.046875,2.609375 -0.792969,1.273438 -1.1875,2.664062 -1.1875,4.171875 0,1.5 0.523437,2.773437 1.578125,3.8125 1.0625,1.03125 2.332031,1.585937 3.8125,1.65625 1.488281,0.0625 3.066406,-0.429687 4.734375,-1.484375 1.664063,-1.0625 3.066406,-2.367188 4.203125,-3.921875 z m 5.078125,-38.046875 c 0,0.980469 -0.308594,1.777344 -0.921875,2.390625 l -9.390625,9.609375 -1.46875,-0.359375 6.84375,-12.78125 c 0.507813,-0.9375 1.378906,-1.40625 2.609375,-1.40625 1.550781,0 2.328125,0.851563 2.328125,2.546875 z m 0,0"
                   id="path38"
                   style="stroke:url(#linearGradient46);stroke-opacity:1" /></g></g></g><g
             fill="#d7a647"
             fill-opacity="1"
             id="g44"
             style="stroke:url(#linearGradient59);stroke-opacity:1"><g
               transform="translate(89.051057,67.069118)"
               id="g43"
               style="stroke:url(#linearGradient57);stroke-opacity:1"><g
                 id="g42"
                 style="stroke:url(#linearGradient54);stroke-opacity:1"><path
                   d="M 60.078125,-1.90625 V 0 h -17.15625 v -1.90625 h 4.171875 c 0.882812,0 1.46875,-0.539062 1.75,-1.625 V -20.1875 c 0,-2.5 -0.5625,-4.554688 -1.6875,-6.171875 -1.125,-1.625 -2.703125,-2.4375 -4.734375,-2.4375 -2.023437,0 -3.949219,0.777344 -5.78125,2.328125 -1.835937,1.460938 -2.75,2.824219 -2.75,4.09375 L 33.8125,-3.53125 c 0.238281,1.085938 0.78125,1.625 1.625,1.625 h 4.09375 V 0 H 22.453125 v -1.90625 h 4.015625 c 0.894531,0 1.460938,-0.539062 1.703125,-1.625 V -20.1875 c 0,-2.40625 -0.542969,-4.40625 -1.625,-6 -1.085937,-1.738281 -2.671875,-2.609375 -4.765625,-2.609375 -2.09375,0 -4.027344,0.71875 -5.796875,2.15625 -1.761719,1.429687 -2.640625,2.851563 -2.640625,4.265625 v 18.84375 c 0.132812,1.085938 0.648438,1.625 1.546875,1.625 h 4.09375 V 0 H 1.828125 V -1.90625 H 5.9375 c 0.882812,0 1.398438,-0.539062 1.546875,-1.625 v -24.359375 c -0.054687,-1.59375 -0.875,-2.390625 -2.46875,-2.390625 h -3.25 v -1.984375 H 13.34375 v 5.375 c 0.9375,-1.695313 2.179688,-3.039063 3.734375,-4.03125 2.070313,-1.40625 4.378906,-2.109375 6.921875,-2.109375 4.46875,0 7.625,2.140625 9.46875,6.421875 2.769531,-4.28125 6.507812,-6.421875 11.21875,-6.421875 2.863281,0 5.222656,1 7.078125,3 1.863281,2 2.796875,4.695312 2.796875,8.078125 L 54.5,-3.53125 c 0.09375,1.085938 0.585938,1.625 1.484375,1.625 z m 0,0"
                   id="path41"
                   style="stroke:url(#linearGradient53);stroke-opacity:1" /></g></g></g><g
             fill="#d7a647"
             fill-opacity="1"
             id="g47"
             style="stroke:url(#linearGradient67);stroke-opacity:1"><g
               transform="translate(151.23781,67.069118)"
               id="g46"
               style="stroke:url(#linearGradient65);stroke-opacity:1"><g
                 id="g45"
                 style="stroke:url(#linearGradient63);stroke-opacity:1"><path
                   d="m 27.609375,-9.953125 c 0,3.25 -1.261719,5.875 -3.78125,7.875 -2.523437,2 -5.398437,3 -8.625,3 -3.21875,0 -6.121094,-0.617187 -8.703125,-1.84375 -0.761719,-0.28125 -1.210938,0.148437 -1.34375,1.28125 -0.804688,-0.148437 -1.34375,-0.148437 -1.625,0 V -11.21875 h 2.046875 v 2.046875 c 0,1.5 0.90625,3.136719 2.71875,4.90625 1.8125,1.761719 3.894531,2.621094 6.25,2.578125 2.351563,-0.050781 4.257813,-0.546875 5.71875,-1.484375 1.457031,-0.945313 2.1875,-2.335937 2.1875,-4.171875 0,-1.832031 -1.226563,-3.265625 -3.671875,-4.296875 -3.34375,-1.175781 -6.59375,-2.398437 -9.75,-3.671875 -3.90625,-1.601562 -5.859375,-4.125 -5.859375,-7.5625 0,-3.4375 1.363281,-6.023438 4.09375,-7.765625 2.257813,-1.5 5.203125,-2.25 8.828125,-2.25 1.507812,0 3.789062,0.492187 6.84375,1.46875 V -32.75 h 1.90625 v 9.390625 h -2.046875 v -1.484375 c 0,-1.695312 -0.789063,-3.070312 -2.359375,-4.125 -1.574219,-1.0625 -3.574219,-1.59375 -6,-1.59375 -2.429688,0 -4.203125,0.636719 -5.328125,1.90625 -0.898437,1.125 -1.242187,2.371094 -1.03125,3.734375 0.21875,1.367187 0.890625,2.375 2.015625,3.03125 0.519531,0.386719 2.578125,1.226563 6.171875,2.515625 3.601563,1.292969 6.253906,2.453125 7.953125,3.484375 2.257812,1.5625 3.390625,3.542969 3.390625,5.9375 z m 0,0"
                   id="path44"
                   style="stroke:url(#linearGradient61);stroke-opacity:1" /></g></g></g><g
             fill="#d7a647"
             fill-opacity="1"
             id="g50"
             style="stroke:url(#linearGradient75);stroke-opacity:1"><g
               transform="translate(180.46065,67.069118)"
               id="g49"
               style="stroke:url(#linearGradient73);stroke-opacity:1"><g
                 id="g48"
                 style="stroke:url(#linearGradient71);stroke-opacity:1"><path
                   d="m 22.734375,-1.90625 c 2.019531,0.148438 3.03125,-0.207031 3.03125,-1.0625 0,-0.414062 -0.167969,-0.789062 -0.5,-1.125 L 12.78125,-16.171875 12.70312,-3.453125 c 0.144531,1.03125 0.664063,1.546875 1.5625,1.546875 h 3.95313 V 0 H 1.484375 V -1.90625 H 5.5 c 0.894531,0 1.414062,-0.515625 1.5625,-1.546875 v -41.65625 C 6.914062,-46.140625 6.394531,-46.65625 5.5,-46.65625 H 1.484375 V -48.5625 H 12.78125 v 30.984375 l 4.9375,-3.875 6.921875,-6.296875 c 0.46875,-0.320312 0.703125,-0.726562 0.703125,-1.21875 0,-0.5 -0.375,-0.75 -1.125,-0.75 H 20.1875 v -1.84375 h 16.796875 v 1.84375 L 33.75,-29.578125 c -1.75,0.09375 -3.917969,1.386719 -6.5,3.875 l -8.6875,6.71875 c 0.46875,0.699219 1.90625,2.25 4.3125,4.65625 8.28125,8.28125 13.269531,12.421875 14.96875,12.421875 h 2.390625 V 0 h -17.5 z m 0,0"
                   id="path47"
                   style="stroke:url(#linearGradient69);stroke-opacity:1" /></g></g></g><g
             fill="#d7a647"
             fill-opacity="1"
             id="g53"
             style="stroke:url(#linearGradient79);stroke-opacity:1"><g
               transform="translate(221.25967,67.069118)"
               id="g52"
               style="stroke:url(#linearGradient78);stroke-opacity:1"><g
                 id="g51"
                 style="stroke:url(#linearGradient77);stroke-opacity:1"><path
                   d="M 33.890625,-1.984375 V 0 H 22.59375 v -5.78125 c -4.1875,4.417969 -8.140625,6.625 -11.859375,6.625 -2.5,0 -4.5,-0.730469 -6,-2.1875 -1.648437,-1.457031 -2.46875,-3.523438 -2.46875,-6.203125 0,-3.71875 1.429687,-6.5 4.296875,-8.34375 2.164062,-1.3125 5.203125,-2.320313 9.109375,-3.03125 L 22.59375,-20.125 c 0.09375,-3.332031 -0.1875,-5.78125 -0.84375,-7.34375 -0.949219,-2.207031 -2.574219,-3.3125 -4.875,-3.3125 -4,0 -6.027344,1.34375 -6.078125,4.03125 0,0.46875 0.269531,1.023438 0.8125,1.65625 0.539063,0.636719 0.8125,0.976562 0.8125,1.015625 0.05078,0.710937 -0.289063,1.296875 -1.015625,1.765625 -0.730469,0.46875 -1.402344,0.636719 -2.015625,0.5 -2.355469,0 -3.511719,-1.304688 -3.46875,-3.921875 0.050781,-2.613281 1.675781,-4.578125 4.875,-5.890625 1.976563,-0.75 4.070313,-1.125 6.28125,-1.125 3.71875,0 6.492187,1.03125 8.328125,3.09375 1.84375,2.261719 2.765625,5.839844 2.765625,10.734375 V -3.53125 c 0,0.46875 0.160156,0.84375 0.484375,1.125 0.332031,0.28125 0.710938,0.421875 1.140625,0.421875 z m -11.296875,-6.625 v -9.1875 c -4.09375,0.523437 -7.460938,1.304687 -10.09375,2.34375 -1.230469,0.46875 -2.246094,1.339844 -3.046875,2.609375 -0.792969,1.273438 -1.1875,2.664062 -1.1875,4.171875 0,1.5 0.523437,2.773437 1.578125,3.8125 1.0625,1.03125 2.332031,1.585937 3.8125,1.65625 1.488281,0.0625 3.066406,-0.429687 4.734375,-1.484375 1.664063,-1.0625 3.066406,-2.367188 4.203125,-3.921875 z m 0,0"
                   id="path50"
                   style="stroke:url(#linearGradient76);stroke-opacity:1" /></g></g></g><g
             fill="#d7a647"
             fill-opacity="1"
             id="g56"
             style="stroke:url(#linearGradient82);stroke-opacity:1"><g
               transform="translate(256.55296,67.069118)"
               id="g55"
               style="stroke:url(#linearGradient81);stroke-opacity:1"><g
                 id="g54"
                 style="stroke:url(#linearGradient80);stroke-opacity:1" /></g></g><g
             fill="#d7a647"
             fill-opacity="1"
             id="g59"
             style="stroke:url(#linearGradient86);stroke-opacity:1"><g
               transform="translate(281.39943,67.069118)"
               id="g58"
               style="stroke:url(#linearGradient85);stroke-opacity:1"><g
                 id="g57"
                 style="stroke:url(#linearGradient84);stroke-opacity:1"><path
                   d="M 60.078125,-1.90625 V 0 h -17.15625 v -1.90625 h 4.171875 c 0.882812,0 1.46875,-0.539062 1.75,-1.625 V -20.1875 c 0,-2.5 -0.5625,-4.554688 -1.6875,-6.171875 -1.125,-1.625 -2.703125,-2.4375 -4.734375,-2.4375 -2.023437,0 -3.949219,0.777344 -5.78125,2.328125 -1.835937,1.460938 -2.75,2.824219 -2.75,4.09375 L 33.8125,-3.53125 c 0.238281,1.085938 0.78125,1.625 1.625,1.625 h 4.09375 V 0 H 22.453125 v -1.90625 h 4.015625 c 0.894531,0 1.460938,-0.539062 1.703125,-1.625 V -20.1875 c 0,-2.40625 -0.542969,-4.40625 -1.625,-6 -1.085937,-1.738281 -2.671875,-2.609375 -4.765625,-2.609375 -2.09375,0 -4.027344,0.71875 -5.796875,2.15625 -1.761719,1.429687 -2.640625,2.851563 -2.640625,4.265625 v 18.84375 c 0.132812,1.085938 0.648438,1.625 1.546875,1.625 h 4.09375 V 0 H 1.828125 V -1.90625 H 5.9375 c 0.882812,0 1.398438,-0.539062 1.546875,-1.625 v -24.359375 c -0.054687,-1.59375 -0.875,-2.390625 -2.46875,-2.390625 h -3.25 v -1.984375 H 13.34375 v 5.375 c 0.9375,-1.695313 2.179688,-3.039063 3.734375,-4.03125 2.070313,-1.40625 4.378906,-2.109375 6.921875,-2.109375 4.46875,0 7.625,2.140625 9.46875,6.421875 2.769531,-4.28125 6.507812,-6.421875 11.21875,-6.421875 2.863281,0 5.222656,1 7.078125,3 1.863281,2 2.796875,4.695312 2.796875,8.078125 L 54.5,-3.53125 c 0.09375,1.085938 0.585938,1.625 1.484375,1.625 z m 0,0"
                   id="path56"
                   style="stroke:url(#linearGradient83);stroke-opacity:1" /></g></g></g><g
             fill="#d7a647"
             fill-opacity="1"
             id="g62"
             style="stroke:url(#linearGradient90);stroke-opacity:1"><g
               transform="translate(343.58619,67.069118)"
               id="g61"
               style="stroke:url(#linearGradient89);stroke-opacity:1"><g
                 id="g60"
                 style="stroke:url(#linearGradient88);stroke-opacity:1"><path
                   d="m 27.75,-48.359375 c 0,0.992187 -0.335938,1.8125 -1,2.46875 l -9.25,9.609375 -1.609375,-0.28125 6.84375,-12.78125 c 0.46875,-0.894531 1.3125,-1.34375 2.53125,-1.34375 1.65625,0 2.484375,0.777344 2.484375,2.328125 z M 31.203125,-28.375 c 3.007813,2.960938 4.515625,6.875 4.515625,11.75 0,4.875 -1.671875,8.960938 -5.015625,12.25 -3.335937,3.292969 -7.710937,4.984375 -13.125,5.078125 -4.28125,0.050781 -7.90625,-1.425781 -10.875,-4.4375 -2.824219,-3.0625 -4.234375,-7.097656 -4.234375,-12.109375 0,-5.007812 1.578125,-9.113281 4.734375,-12.3125 3.15625,-3.207031 7.4375,-4.8125 12.84375,-4.8125 4.46875,0 8.1875,1.53125 11.15625,4.59375 z M 20.40625,-1.546875 c 2.957031,0 5.175781,-1.242187 6.65625,-3.734375 1.488281,-2.5 2.234375,-5.738281 2.234375,-9.71875 0,-3.976562 -1.011719,-7.59375 -3.03125,-10.84375 -2.074219,-3.195312 -4.640625,-4.796875 -7.703125,-4.796875 -6.449219,0 -9.671875,4.121094 -9.671875,12.359375 0,4.375 0.800781,8.070312 2.40625,11.078125 2.019531,3.773437 5.054687,5.65625 9.109375,5.65625 z m 0,0"
                   id="path59"
                   style="stroke:url(#linearGradient87);stroke-opacity:1" /></g></g></g><g
             fill="#d7a647"
             fill-opacity="1"
             id="g65"
             style="stroke:url(#linearGradient94);stroke-opacity:1"><g
               transform="translate(381.42057,67.069118)"
               id="g64"
               style="stroke:url(#linearGradient93);stroke-opacity:1"><g
                 id="g63"
                 style="stroke:url(#linearGradient92);stroke-opacity:1"><path
                   d="M 41.515625,-1.90625 V 0 h -11.65625 l 0.28125,-6.21875 c -0.84375,1.75 -2.257813,3.28125 -4.234375,4.59375 -2.304688,1.6953125 -4.960938,2.546875 -7.96875,2.546875 -4.710938,0 -8.3125,-1.609375 -10.8125,-4.828125 -2.492188,-3.226562 -3.734375,-7.394531 -3.734375,-12.5 0,-5.113281 1.738281,-9.335938 5.21875,-12.671875 3.488281,-3.34375 7.769531,-4.921875 12.84375,-4.734375 1.976563,0.230469 3.816406,0.699219 5.515625,1.40625 1.5,0.804688 2.488281,1.625 2.96875,2.46875 v -15.25 c -0.05469,-1.644531 -0.902344,-2.46875 -2.546875,-2.46875 h -3.3125 V -49.625 H 35.71875 v 46.03125 c 0.09375,1.125 0.613281,1.6875 1.5625,1.6875 z M 29.9375,-16.3125 v -8.953125 c -0.523438,-1.601563 -1.726562,-2.992187 -3.609375,-4.171875 -1.886719,-1.175781 -4.0625,-1.765625 -6.53125,-1.765625 -2.46875,0 -4.648437,0.992187 -6.53125,2.96875 -2.210937,2.398437 -3.480469,5.949219 -3.8125,10.65625 -0.28125,3.625 0.59375,6.851563 2.625,9.671875 2.15625,3.15625 4.925781,4.734375 8.3125,4.734375 3.394531,0 5.914063,-1.4375 7.5625,-4.3125 1.320313,-2.300781 1.984375,-5.242187 1.984375,-8.828125 z m 0,0"
                   id="path62"
                   style="stroke:url(#linearGradient91);stroke-opacity:1" /></g></g></g><g
             fill="#d7a647"
             fill-opacity="1"
             id="g68"
             style="stroke:url(#linearGradient98);stroke-opacity:1"><g
               transform="translate(424.12548,67.069118)"
               id="g67"
               style="stroke:url(#linearGradient97);stroke-opacity:1"><g
                 id="g66"
                 style="stroke:url(#linearGradient96);stroke-opacity:1"><path
                   d="M 33.890625,-1.984375 V 0 H 22.59375 v -5.78125 c -4.1875,4.417969 -8.140625,6.625 -11.859375,6.625 -2.5,0 -4.5,-0.730469 -6,-2.1875 -1.648437,-1.457031 -2.46875,-3.523438 -2.46875,-6.203125 0,-3.71875 1.429687,-6.5 4.296875,-8.34375 2.164062,-1.3125 5.203125,-2.320313 9.109375,-3.03125 L 22.59375,-20.125 c 0.09375,-3.332031 -0.1875,-5.78125 -0.84375,-7.34375 -0.949219,-2.207031 -2.574219,-3.3125 -4.875,-3.3125 -4,0 -6.027344,1.34375 -6.078125,4.03125 0,0.46875 0.269531,1.023438 0.8125,1.65625 0.539063,0.636719 0.8125,0.976562 0.8125,1.015625 0.05078,0.710937 -0.289063,1.296875 -1.015625,1.765625 -0.730469,0.46875 -1.402344,0.636719 -2.015625,0.5 -2.355469,0 -3.511719,-1.304688 -3.46875,-3.921875 0.050781,-2.613281 1.675781,-4.578125 4.875,-5.890625 1.976563,-0.75 4.070313,-1.125 6.28125,-1.125 3.71875,0 6.492187,1.03125 8.328125,3.09375 1.84375,2.261719 2.765625,5.839844 2.765625,10.734375 V -3.53125 c 0,0.46875 0.160156,0.84375 0.484375,1.125 0.332031,0.28125 0.710938,0.421875 1.140625,0.421875 z m -11.296875,-6.625 v -9.1875 c -4.09375,0.523437 -7.460938,1.304687 -10.09375,2.34375 -1.230469,0.46875 -2.246094,1.339844 -3.046875,2.609375 -0.792969,1.273438 -1.1875,2.664062 -1.1875,4.171875 0,1.5 0.523437,2.773437 1.578125,3.8125 1.0625,1.03125 2.332031,1.585937 3.8125,1.65625 1.488281,0.0625 3.066406,-0.429687 4.734375,-1.484375 1.664063,-1.0625 3.066406,-2.367188 4.203125,-3.921875 z m 0,0"
                   id="path65"
                   style="stroke:url(#linearGradient95);stroke-opacity:1" /></g></g></g></g></g></g></g></svg>
